<svg width="74" height="74" viewBox="0 0 74 74" fill="none" xmlns="http://www.w3.org/2000/svg">
<g filter="url(#filter0_d_454_209)">
<circle cx="37" cy="33" r="26" fill="#5ECE7B"/>
<path d="M48.4736 26.8484C48.0186 26.2925 47.3109 25.9546 46.5785 25.9546H31.1907L30.711 24.1669C30.4326 23.1277 29.4732 22.4028 28.3608 22.4028H25.7837C25.3544 22.4028 25 22.7407 25 23.1523C25 23.5628 25.3534 23.9017 25.7837 23.9017H28.3608C28.7398 23.9017 29.0685 24.1433 29.1692 24.5058L32.2517 36.2494C32.53 37.2886 33.4894 38.0135 34.6018 38.0135H44.6833C45.7947 38.0135 46.7808 37.2886 47.0335 36.2494L48.9286 28.807C49.1053 28.1293 48.9543 27.4044 48.4736 26.8485L48.4736 26.8484ZM47.3879 28.4671L45.4928 35.9095C45.3921 36.272 45.0634 36.5136 44.6844 36.5136H34.6018C34.2228 36.5136 33.8941 36.272 33.7935 35.9095L31.5953 27.4772H46.5796C46.8323 27.4772 47.085 27.598 47.237 27.7915C47.388 27.984 47.463 28.2257 47.388 28.4673L47.3879 28.4671Z" fill="white"/>
<path d="M35.1332 38.978C33.6932 38.978 32.5059 40.1135 32.5059 41.4905C32.5059 42.8675 33.6933 44.0029 35.1332 44.0029C36.5733 44.0039 37.7606 42.8684 37.7606 41.4912C37.7606 40.114 36.5732 38.9778 35.1332 38.9778V38.978ZM35.1332 42.4816C34.5519 42.4816 34.0968 42.0465 34.0968 41.4906C34.0968 40.9346 34.5519 40.4995 35.1332 40.4995C35.7146 40.4995 36.1696 40.9346 36.1696 41.4906C36.1687 42.0229 35.689 42.4816 35.1332 42.4816Z" fill="white"/>
<path d="M43.825 38.9778C42.3849 38.9778 41.1976 40.1132 41.1976 41.4902C41.1976 42.8672 42.385 44.0027 43.825 44.0027C45.265 44.0027 46.4524 42.8672 46.4524 41.4902C46.4277 40.1141 45.265 38.9778 43.825 38.9778ZM43.825 42.4814C43.2437 42.4814 42.7886 42.0463 42.7886 41.4903C42.7886 40.9344 43.2437 40.4993 43.825 40.4993C44.4064 40.4993 44.8614 40.9344 44.8614 41.4903C44.8614 42.0227 44.3807 42.4814 43.825 42.4814Z" fill="white"/>
</g>
<defs>
<filter id="filter0_d_454_209" x="0" y="0" width="74" height="74" filterUnits="userSpaceOnUse" color-interpolation-filters="sRGB">
<feFlood flood-opacity="0" result="BackgroundImageFix"/>
<feColorMatrix in="SourceAlpha" type="matrix" values="0 0 0 0 0 0 0 0 0 0 0 0 0 0 0 0 0 0 127 0" result="hardAlpha"/>
<feOffset dy="4"/>
<feGaussianBlur stdDeviation="5.5"/>
<feColorMatrix type="matrix" values="0 0 0 0 0.113725 0 0 0 0 0.121569 0 0 0 0 0.133333 0 0 0 0.1 0"/>
<feBlend mode="normal" in2="BackgroundImageFix" result="effect1_dropShadow_454_209"/>
<feBlend mode="normal" in="SourceGraphic" in2="effect1_dropShadow_454_209" result="shape"/>
</filter>
</defs>
</svg>
